<svg preserveAspectRatio="xMidYMid meet" width="140" height="31.7731" overflow="visible" style="display: block;" viewBox="0 0 140 31.7731" fill="none" xmlns="http://www.w3.org/2000/svg">
<g id="logo_fd11946b31524fbe98765f34f3de0628.svg" clip-path="url(#clip0_323_6959)">
<path id="Vector" d="M41.8538 11.4527C41.8538 9.11513 42.6893 7.16631 44.3601 5.60619C46.031 4.04607 48.0681 3.26513 50.4715 3.26513C53.2845 3.26513 55.5688 4.3429 57.3244 6.49491L54.8706 8.29885C53.7969 6.77937 52.33 6.01963 50.4715 6.01963C48.954 6.01963 47.6585 6.55498 46.585 7.62216C45.5095 8.69109 44.9737 9.9685 44.9737 11.4527C44.9737 12.9368 45.5113 14.216 46.585 15.2849C47.6585 16.3539 48.954 16.8875 50.4715 16.8875C51.8355 16.8875 53.003 16.504 53.9756 15.7355C54.9481 14.9669 55.5941 13.9315 55.9189 12.6294H50.4463V9.87487H59.0891V11.9526C59.0891 13.6383 58.4323 15.2425 57.1206 16.7603C55.4659 18.679 53.2502 19.6402 50.4715 19.6402C48.0681 19.6402 46.031 18.8593 44.3601 17.2991C42.6911 15.739 41.8538 13.7884 41.8538 11.4527Z" fill="var(--fill-0, white)"/>
<path id="Vector_2" d="M62.8494 19.3133V12.6276H60.9314V9.87491H62.8494V3.5885H75.1749V6.34299H65.8158V9.87491H72.3367V12.6276H65.8158V16.5606H75.1749V19.3133H62.8494Z" fill="var(--fill-0, white)"/>
<path id="Vector_3" d="M76.7106 19.3151L82.5656 6.19282H78.883V3.5885H85.532L92.3344 19.3151H89.1407L87.9173 16.3592H81.1239L79.888 19.3151H76.7106ZM82.1759 13.7549H86.8456L84.5342 8.15754L82.1759 13.7549Z" fill="var(--fill-0, white)"/>
<path id="Vector_4" d="M95.2231 19.3151V14.3573H93.3051V11.6029H95.2231V3.5885H102.87C104.573 3.5885 105.964 4.07261 107.038 5.04083C108.112 6.00907 108.649 7.32005 108.649 8.97205C108.649 10.0904 108.299 11.0746 107.601 11.9262C106.901 12.7778 105.999 13.3715 104.891 13.7036L108.906 19.3133H105.171L101.822 14.3556H98.1895V19.3133H95.2231V19.3151ZM98.1895 6.34299V11.6011H102.639C103.509 11.6011 104.232 11.3714 104.813 10.9121C105.392 10.4526 105.683 9.806 105.683 8.97205C105.683 8.12044 105.398 7.47024 104.826 7.01793C104.255 6.56739 103.527 6.34123 102.639 6.34123H98.1895V6.34299Z" fill="var(--fill-0, white)"/>
<path id="Vector_5" d="M117.139 19.6402L110.03 3.5885H113.225L117.139 13.2054L121.05 3.5885H124.247L117.139 19.6402Z" fill="var(--fill-0, white)"/>
<path id="Vector_6" d="M140 19.6406L129.643 9.67392V19.3155H126.676V3.27443L137.033 13.2394V3.58892H140V19.6406Z" fill="var(--fill-0, white)"/>
<path id="Vector_7" d="M51.8355 25.9991C51.8355 25.2817 52.0917 24.6846 52.6042 24.2057C53.1166 23.7269 53.7409 23.4884 54.4771 23.4884C55.3396 23.4884 56.0397 23.8188 56.5774 24.4795L55.825 25.0326C55.4966 24.5679 55.0473 24.3347 54.4771 24.3347C54.0116 24.3347 53.6146 24.499 53.2844 24.8259C52.956 25.1545 52.7918 25.545 52.7918 26.0009C52.7918 26.4567 52.956 26.8471 53.2844 27.1758C53.6146 27.5027 54.0116 27.667 54.4771 27.667C54.8939 27.667 55.253 27.5486 55.5507 27.3136C55.8484 27.0786 56.0469 26.7606 56.1462 26.3613H54.4681V25.5167H57.1169V26.1546C57.1169 26.6705 56.9166 27.1634 56.5142 27.6281C56.0072 28.2165 55.3288 28.5098 54.4753 28.5098C53.7374 28.5098 53.1148 28.2713 52.6024 27.7924C52.0917 27.3136 51.8355 26.7164 51.8355 25.9991Z" fill="var(--fill-0, white)"/>
<path id="Vector_8" d="M61.4637 28.409V26.3594H60.8755V25.5149H61.4637V23.589H65.242V24.4318H62.3731V25.5149H64.3723V26.3594H62.3731V27.5644H65.242V28.409H61.4637Z" fill="var(--fill-0, white)"/>
<path id="Vector_9" d="M68.9048 28.409L70.7002 24.3859H69.5707V23.5873H71.6096L73.6954 28.409H72.7156L72.3404 27.5026H70.2582L69.8792 28.409H68.9048ZM70.581 26.7057H72.0137L71.3047 24.9902L70.581 26.7057Z" fill="var(--fill-0, white)"/>
<path id="Vector_10" d="M77.7714 28.4108V26.8895H77.1831V26.045H77.7714V23.589H80.1152C80.6385 23.589 81.0625 23.7374 81.3945 24.0343C81.7229 24.3311 81.8889 24.7339 81.8889 25.2393C81.8889 25.5821 81.7807 25.8842 81.5659 26.1456C81.3512 26.4072 81.0751 26.5892 80.7359 26.6899L81.9664 28.4108H80.8225L79.7958 26.8895H78.6826V28.4108H77.7714ZM78.6807 24.4318V26.0432H80.0449C80.3101 26.0432 80.532 25.9725 80.7106 25.833C80.8893 25.6934 80.9777 25.4937 80.9777 25.2375C80.9777 24.976 80.8893 24.7763 80.7161 24.6385C80.5392 24.5007 80.3173 24.4318 80.0466 24.4318H78.6807Z" fill="var(--fill-0, white)"/>
<path id="Vector_11" d="M87.6828 28.5097L85.5032 23.589H86.4811L87.6828 26.5362L88.8808 23.589H89.8624L87.6828 28.5097Z" fill="var(--fill-0, white)"/>
<path id="Vector_12" d="M97.8828 28.5098L94.7072 25.4549V28.409H93.7978V23.4919L96.9734 26.5468V23.5891H97.8828V28.5098Z" fill="var(--fill-0, white)"/>
<path id="Vector_13" d="M102.399 28.0415C102.399 27.9091 102.444 27.7977 102.537 27.7076C102.628 27.6192 102.742 27.5733 102.877 27.5733C103.012 27.5733 103.126 27.6192 103.217 27.7076C103.308 27.7977 103.356 27.9091 103.356 28.0415C103.356 28.1758 103.308 28.2871 103.217 28.3755C103.126 28.4656 103.012 28.5098 102.877 28.5098C102.745 28.5098 102.634 28.4638 102.54 28.3719C102.446 28.2801 102.399 28.1688 102.399 28.0415Z" fill="var(--fill-0, white)"/>
<path id="Vector_14" d="M111.563 26.9974L112.302 27.5203C111.762 28.1793 111.062 28.5115 110.199 28.5115C109.461 28.5115 108.839 28.2713 108.326 27.7924C107.814 27.3136 107.558 26.7164 107.558 26.0008C107.558 25.2835 107.814 24.6863 108.326 24.2075C108.839 23.7287 109.463 23.4901 110.199 23.4901C111.062 23.4901 111.762 23.8206 112.302 24.4795L111.549 25.0326C111.221 24.5679 110.772 24.3329 110.201 24.3329C109.735 24.3329 109.339 24.4972 109.008 24.8241C108.68 25.151 108.516 25.5432 108.516 25.9991C108.516 26.4549 108.68 26.8453 109.008 27.174C109.339 27.5009 109.735 27.6652 110.201 27.6652C110.775 27.6652 111.228 27.4426 111.563 26.9974Z" fill="var(--fill-0, white)"/>
<path id="Vector_15" d="M116.157 25.9991C116.157 25.2817 116.413 24.6846 116.926 24.2057C117.438 23.7269 118.063 23.4884 118.798 23.4884C119.537 23.4884 120.161 23.7269 120.672 24.2057C121.184 24.6846 121.441 25.2817 121.441 25.9991C121.441 26.7164 121.184 27.3136 120.672 27.7924C120.16 28.2695 119.535 28.5098 118.798 28.5098C118.061 28.5098 117.438 28.2713 116.926 27.7924C116.413 27.3136 116.157 26.7164 116.157 25.9991ZM117.113 25.9991C117.113 26.4549 117.279 26.8453 117.608 27.174C117.939 27.5009 118.335 27.6652 118.8 27.6652C119.266 27.6652 119.663 27.5009 119.992 27.174C120.322 26.8471 120.485 26.4549 120.485 25.9991C120.485 25.5432 120.322 25.1527 119.992 24.8241C119.661 24.4972 119.266 24.3329 118.8 24.3329C118.335 24.3329 117.939 24.4972 117.608 24.8241C117.279 25.1527 117.113 25.5432 117.113 25.9991Z" fill="var(--fill-0, white)"/>
<path id="Vector_16" d="M125.645 28.409V23.4901L127.832 25.6563L130.018 23.4901V28.409H129.111V25.4302L127.832 26.7288L126.554 25.4302V28.409H125.645Z" fill="var(--fill-0, white)"/>
<path id="Vector_17" d="M40.9643 0H40.7947L0 0.0194352L13.0094 22.0837H24.4508L29.5734 13.3944L31.569 13.375H33.0774L35.0496 10.0286L22.4462 10.0304L20.4902 13.375H23.5595L18.787 21.3381L11.0823 6.70339L37.02 6.68925L40.9643 0Z" fill="var(--fill-0, white)"/>
<path id="Vector_18" d="M18.7148 31.7731L24.0395 22.7428H13.3884L18.7148 31.7731Z" fill="var(--fill-0, white)"/>
</g>
<defs>
<clipPath id="clip0_323_6959">
<rect width="140" height="31.7731" fill="white"/>
</clipPath>
</defs>
</svg>
