<svg width="160" height="160" viewBox="0 0 160 160" fill="none" xmlns="http://www.w3.org/2000/svg">
  <rect width="160" height="160" fill="#F5F5F5"/>
  <rect x="40" y="40" width="80" height="80" rx="8" fill="#E5E5E5"/>
  <path d="M80 55C71.163 55 64 62.163 64 71C64 79.837 71.163 87 80 87C88.837 87 96 79.837 96 71C96 62.163 88.837 55 80 55ZM80 60C86.065 60 91 64.935 91 71C91 77.065 86.065 82 80 82C73.935 82 69 77.065 69 71C69 64.935 73.935 60 80 60Z" fill="#BDBDBD"/>
  <path d="M55 105C55 96.716 61.716 90 70 90H90C98.284 90 105 96.716 105 105V108H55V105Z" fill="#BDBDBD"/>
</svg>
