<svg preserveAspectRatio="none" width="100%" height="100%" overflow="visible" style="display: block;" viewBox="0 0 15 17" fill="none" xmlns="http://www.w3.org/2000/svg">
<g id="Union">
<path d="M4.5 2C4.5 1.17157 5.17157 0.5 6 0.5H9.87868C10.2765 0.5 10.658 0.658035 10.9393 0.93934L14.0607 4.06066C14.342 4.34197 14.5 4.7235 14.5 5.12132V11C14.5 11.8284 13.8284 12.5 13 12.5H12V9.12132C12 8.32567 11.6839 7.56261 11.1213 7L8 3.87868C7.43739 3.31607 6.67433 3 5.87868 3H4.5V2Z" fill="var(--fill-0, #FFE2E2)"/>
<path d="M2 4.5C1.17157 4.5 0.5 5.17157 0.5 6V15C0.5 15.8284 1.17157 16.5 2 16.5H9C9.82843 16.5 10.5 15.8284 10.5 15V9.12132C10.5 8.7235 10.342 8.34197 10.0607 8.06066L6.93934 4.93934C6.65804 4.65804 6.2765 4.5 5.87868 4.5H2Z" fill="var(--fill-0, #FFE2E2)"/>
<path d="M4.5 2C4.5 1.17157 5.17157 0.5 6 0.5H9.87868C10.2765 0.5 10.658 0.658035 10.9393 0.93934L14.0607 4.06066C14.342 4.34197 14.5 4.7235 14.5 5.12132V11C14.5 11.8284 13.8284 12.5 13 12.5H12V9.12132C12 8.32567 11.6839 7.56261 11.1213 7L8 3.87868C7.43739 3.31607 6.67433 3 5.87868 3H4.5V2Z" stroke="var(--stroke-0, #C10007)" stroke-linejoin="round"/>
<path d="M2 4.5C1.17157 4.5 0.5 5.17157 0.5 6V15C0.5 15.8284 1.17157 16.5 2 16.5H9C9.82843 16.5 10.5 15.8284 10.5 15V9.12132C10.5 8.7235 10.342 8.34197 10.0607 8.06066L6.93934 4.93934C6.65804 4.65804 6.2765 4.5 5.87868 4.5H2Z" stroke="var(--stroke-0, #C10007)" stroke-linejoin="round"/>
</g>
</svg>
