<svg preserveAspectRatio="none" width="100%" height="100%" overflow="visible" style="display: block;" viewBox="0 0 16 19.002" fill="none" xmlns="http://www.w3.org/2000/svg">
<g id="Subtract">
<mask id="path-1-outside-1_340_32238" maskUnits="userSpaceOnUse" x="0" y="0" width="16" height="20" fill="black">
<rect fill="white" width="16" height="20"/>
<path d="M8 1C11.866 1 15 4.13401 15 8C15 11.4923 13.3021 13.9872 11.6455 15.584C10.8175 16.3821 9.99162 16.9656 9.37207 17.3496C9.06163 17.542 8.80068 17.6855 8.61523 17.7822C8.5225 17.8306 8.44796 17.8673 8.39551 17.8926C8.36953 17.9051 8.34894 17.9149 8.33398 17.9219L8.31543 17.9307L8.30957 17.9326L8.30762 17.9336C8.1098 18.0196 8 18 8 18C8 18 7.89015 18.0201 7.69336 17.9346L7.69043 17.9326L7.68457 17.9307L7.66602 17.9219C7.65106 17.9149 7.63047 17.9051 7.60449 17.8926C7.55204 17.8673 7.4775 17.8306 7.38477 17.7822C7.19932 17.6855 6.93837 17.542 6.62793 17.3496C6.00838 16.9656 5.18251 16.3821 4.35449 15.584C2.69788 13.9872 1 11.4923 1 8C1 4.13401 4.13401 1 8 1ZM8 5.75C6.75736 5.75 5.75 6.75736 5.75 8C5.75 9.24264 6.75736 10.25 8 10.25C9.24264 10.25 10.25 9.24264 10.25 8C10.25 6.75736 9.24264 5.75 8 5.75Z"/>
</mask>
<path d="M8 1C11.866 1 15 4.13401 15 8C15 11.4923 13.3021 13.9872 11.6455 15.584C10.8175 16.3821 9.99162 16.9656 9.37207 17.3496C9.06163 17.542 8.80068 17.6855 8.61523 17.7822C8.5225 17.8306 8.44796 17.8673 8.39551 17.8926C8.36953 17.9051 8.34894 17.9149 8.33398 17.9219L8.31543 17.9307L8.30957 17.9326L8.30762 17.9336C8.1098 18.0196 8 18 8 18C8 18 7.89015 18.0201 7.69336 17.9346L7.69043 17.9326L7.68457 17.9307L7.66602 17.9219C7.65106 17.9149 7.63047 17.9051 7.60449 17.8926C7.55204 17.8673 7.4775 17.8306 7.38477 17.7822C7.19932 17.6855 6.93837 17.542 6.62793 17.3496C6.00838 16.9656 5.18251 16.3821 4.35449 15.584C2.69788 13.9872 1 11.4923 1 8C1 4.13401 4.13401 1 8 1ZM8 5.75C6.75736 5.75 5.75 6.75736 5.75 8C5.75 9.24264 6.75736 10.25 8 10.25C9.24264 10.25 10.25 9.24264 10.25 8C10.25 6.75736 9.24264 5.75 8 5.75Z" fill="var(--fill-0, #FFE2E2)"/>
<path d="M11.6455 15.584L12.3395 16.304L12.3395 16.304L11.6455 15.584ZM9.37207 17.3496L9.89886 18.1996L9.89888 18.1996L9.37207 17.3496ZM8.61523 17.7822L9.07759 18.6689L9.0776 18.6689L8.61523 17.7822ZM8.39551 17.8926L8.82975 18.7934L8.82977 18.7934L8.39551 17.8926ZM8.33398 17.9219L7.91276 17.0149L7.9059 17.0181L8.33398 17.9219ZM8.31543 17.9307L8.63166 18.8793C8.66981 18.8666 8.70717 18.8516 8.74352 18.8344L8.31543 17.9307ZM8.30957 17.9326L7.99334 16.9839C7.94845 16.9989 7.90468 17.017 7.86236 17.0382L8.30957 17.9326ZM8.30762 17.9336L8.7065 18.8506C8.72281 18.8435 8.73892 18.836 8.75483 18.828L8.30762 17.9336ZM8 18L8.17611 17.0156C8.0584 16.9946 7.93788 16.9948 7.82025 17.0163L8 18ZM7.69336 17.9346L7.13866 18.7666C7.1881 18.7996 7.24037 18.8281 7.29486 18.8517L7.69336 17.9346ZM7.69043 17.9326L8.24513 17.1006C8.17118 17.0513 8.09098 17.012 8.00666 16.9839L7.69043 17.9326ZM7.68457 17.9307L7.25648 18.8344C7.29283 18.8516 7.33019 18.8666 7.36834 18.8793L7.68457 17.9307ZM7.66602 17.9219L8.09411 17.0181L8.08722 17.0149L7.66602 17.9219ZM7.60449 17.8926L7.17023 18.7934L7.17025 18.7934L7.60449 17.8926ZM7.38477 17.7822L6.9224 18.6689L6.92241 18.6689L7.38477 17.7822ZM6.62793 17.3496L6.10112 18.1996L6.10114 18.1996L6.62793 17.3496ZM4.35449 15.584L3.6605 16.304L3.66052 16.304L4.35449 15.584ZM8 1V2C11.3137 2 14 4.68629 14 8H15H16C16 3.58172 12.4183 0 8 0V1ZM15 8H14C14 11.1365 12.4829 13.3879 10.9515 14.864L11.6455 15.584L12.3395 16.304C14.1214 14.5864 16 11.8481 16 8H15ZM11.6455 15.584L10.9515 14.864C10.1857 15.6021 9.41952 16.1437 8.84526 16.4996L9.37207 17.3496L9.89888 18.1996C10.5637 17.7875 11.4493 17.162 12.3395 16.304L11.6455 15.584ZM9.37207 17.3496L8.84528 16.4996C8.55874 16.6772 8.31964 16.8086 8.15287 16.8955L8.61523 17.7822L9.0776 18.6689C9.28173 18.5625 9.56451 18.4068 9.89886 18.1996L9.37207 17.3496ZM8.61523 17.7822L8.15288 16.8955C8.07111 16.9382 8.00613 16.9702 7.96124 16.9918L8.39551 17.8926L8.82977 18.7934C8.88979 18.7644 8.97389 18.723 9.07759 18.6689L8.61523 17.7822ZM8.39551 17.8926L7.96126 16.9918C7.93583 17.004 7.92074 17.0112 7.91278 17.0149L8.33398 17.9219L8.75519 18.8288C8.77713 18.8187 8.80324 18.8062 8.82975 18.7934L8.39551 17.8926ZM8.33398 17.9219L7.9059 17.0181L7.88734 17.0269L8.31543 17.9307L8.74352 18.8344L8.76207 18.8256L8.33398 17.9219ZM8.31543 17.9307L7.9992 16.982L7.99334 16.9839L8.30957 17.9326L8.6258 18.8813L8.63166 18.8793L8.31543 17.9307ZM8.30957 17.9326L7.86236 17.0382L7.8604 17.0392L8.30762 17.9336L8.75483 18.828L8.75678 18.827L8.30957 17.9326ZM8.30762 17.9336L7.90873 17.0166C7.89879 17.0209 7.91864 17.0108 7.96829 17.0053C7.99247 17.0026 8.0222 17.0011 8.05735 17.0024C8.07486 17.0031 8.09353 17.0044 8.11337 17.0066C8.12329 17.0076 8.13347 17.0089 8.14393 17.0104C8.14916 17.0112 8.15446 17.012 8.15982 17.0129C8.1625 17.0133 8.1652 17.0137 8.16792 17.0142C8.16927 17.0144 8.17063 17.0147 8.172 17.0149C8.17268 17.015 8.17337 17.0151 8.17405 17.0153C8.17439 17.0153 8.17491 17.0154 8.17508 17.0154C8.17559 17.0155 8.17611 17.0156 8 18C7.82389 18.9844 7.82441 18.9845 7.82492 18.9846C7.8251 18.9846 7.82561 18.9847 7.82596 18.9847C7.82665 18.9849 7.82734 18.985 7.82804 18.9851C7.82943 18.9853 7.83083 18.9856 7.83225 18.9858C7.83507 18.9863 7.83793 18.9868 7.84082 18.9873C7.84661 18.9882 7.85255 18.9891 7.85863 18.99C7.8708 18.9917 7.88353 18.9933 7.89684 18.9948C7.92345 18.9977 7.95225 18.9999 7.98314 19.001C8.04506 19.0033 8.1146 19.0014 8.19096 18.9928C8.34497 18.9756 8.51862 18.9323 8.7065 18.8506L8.30762 17.9336ZM8 18C7.82025 17.0163 7.82077 17.0162 7.82128 17.0161C7.82145 17.0161 7.82197 17.016 7.82231 17.0159C7.82299 17.0158 7.82367 17.0157 7.82435 17.0155C7.82572 17.0153 7.82707 17.0151 7.82843 17.0148C7.83114 17.0144 7.83383 17.0139 7.83651 17.0135C7.84186 17.0126 7.84715 17.0117 7.85237 17.011C7.86281 17.0094 7.87299 17.0081 7.8829 17.007C7.90273 17.0048 7.92143 17.0033 7.93898 17.0026C7.97424 17.0012 8.00419 17.0026 8.02874 17.0052C8.07917 17.0107 8.1002 17.021 8.09186 17.0174L7.69336 17.9346L7.29486 18.8517C7.48331 18.9336 7.65766 18.9766 7.81221 18.9935C7.88882 19.0018 7.95854 19.0035 8.02054 19.001C8.05147 18.9997 8.08028 18.9974 8.10689 18.9944C8.12019 18.9929 8.13292 18.9912 8.14507 18.9894C8.15114 18.9885 8.15707 18.9876 8.16285 18.9867C8.16574 18.9862 8.16859 18.9857 8.17141 18.9852C8.17282 18.985 8.17422 18.9847 8.17561 18.9845C8.1763 18.9843 8.17699 18.9842 8.17768 18.9841C8.17803 18.984 8.17854 18.9839 8.17872 18.9839C8.17923 18.9838 8.17975 18.9837 8 18ZM7.69336 17.9346L8.24806 17.1025L8.24513 17.1006L7.69043 17.9326L7.13573 18.7647L7.13866 18.7666L7.69336 17.9346ZM7.69043 17.9326L8.00666 16.9839L8.0008 16.982L7.68457 17.9307L7.36834 18.8793L7.3742 18.8813L7.69043 17.9326ZM7.68457 17.9307L8.11266 17.0269L8.0941 17.0181L7.66602 17.9219L7.23793 18.8256L7.25648 18.8344L7.68457 17.9307ZM7.66602 17.9219L8.08722 17.0149C8.07926 17.0112 8.06417 17.004 8.03874 16.9918L7.60449 17.8926L7.17025 18.7934C7.19676 18.8062 7.22287 18.8187 7.24481 18.8288L7.66602 17.9219ZM7.60449 17.8926L8.03876 16.9918C7.99387 16.9702 7.92889 16.9382 7.84712 16.8955L7.38477 17.7822L6.92241 18.6689C7.02611 18.723 7.11021 18.7644 7.17023 18.7934L7.60449 17.8926ZM7.38477 17.7822L7.84713 16.8955C7.68036 16.8086 7.44126 16.6772 7.15472 16.4996L6.62793 17.3496L6.10114 18.1996C6.43549 18.4068 6.71827 18.5625 6.9224 18.6689L7.38477 17.7822ZM6.62793 17.3496L7.15474 16.4996C6.58048 16.1437 5.81429 15.6021 5.04847 14.864L4.35449 15.584L3.66052 16.304C4.55072 17.162 5.43629 17.7875 6.10112 18.1996L6.62793 17.3496ZM4.35449 15.584L5.04849 14.864C3.51713 13.3879 2 11.1365 2 8H1H0C0 11.8481 1.87863 14.5864 3.6605 16.304L4.35449 15.584ZM1 8H2C2 4.68629 4.68629 2 8 2V1V0C3.58172 0 0 3.58172 0 8H1ZM8 5.75V4.75C6.20507 4.75 4.75 6.20507 4.75 8H5.75H6.75C6.75 7.30964 7.30964 6.75 8 6.75V5.75ZM5.75 8H4.75C4.75 9.79493 6.20507 11.25 8 11.25V10.25V9.25C7.30964 9.25 6.75 8.69036 6.75 8H5.75ZM8 10.25V11.25C9.79493 11.25 11.25 9.79493 11.25 8H10.25H9.25C9.25 8.69036 8.69036 9.25 8 9.25V10.25ZM10.25 8H11.25C11.25 6.20507 9.79493 4.75 8 4.75V5.75V6.75C8.69036 6.75 9.25 7.30964 9.25 8H10.25Z" fill="var(--stroke-0, #C10007)" mask="url(#path-1-outside-1_340_32238)"/>
</g>
</svg>
