<svg preserveAspectRatio="none" width="100%" height="100%" overflow="visible" style="display: block;" viewBox="0 0 20.4306 20.0424" fill="none" xmlns="http://www.w3.org/2000/svg">
<path id="Subtract" d="M1.5479 1.40825C1.93564 1.06489 2.46469 0.926892 2.97075 1.03716L3.07817 1.0645L4.14067 1.38579C9.42999 3.04737 14.3518 5.53653 18.754 8.70122C19.1786 9.00654 19.4307 9.4985 19.4307 10.0215C19.4306 10.5444 19.1785 11.0356 18.754 11.3409C14.0585 14.7165 8.77152 17.3236 3.07817 18.9776C2.50468 19.1441 1.88581 18.9832 1.46685 18.5577C1.04782 18.132 0.896653 17.5104 1.07231 16.9395L3.09868 10.3526L3.15923 10.2012C3.19168 10.1359 3.23248 10.0763 3.27739 10.0206C3.19981 9.92402 3.13671 9.81405 3.09868 9.69048L1.07231 3.10259C0.896791 2.53185 1.04804 1.91103 1.46685 1.4854L1.5479 1.40825Z" fill="var(--fill-0, #FFE2E2)" stroke="var(--stroke-0, #C10007)" stroke-width="2" stroke-linejoin="round"/>
</svg>
