<svg preserveAspectRatio="none" width="100%" height="100%" overflow="visible" style="display: block;" viewBox="0 0 16.3787 16.3787" fill="none" xmlns="http://www.w3.org/2000/svg">
<path id="Subtract" d="M6.37891 0.5C7.17447 0.50006 7.93744 0.816351 8.5 1.37891L15 7.87891C16.1714 9.05045 16.1714 10.9496 15 12.1211L12.1211 15C10.9495 16.1714 9.05045 16.1714 7.87891 15L1.37891 8.5C0.81635 7.93744 0.50006 7.17447 0.5 6.37891V3.5C0.5 1.84315 1.84315 0.5 3.5 0.5H6.37891ZM4 3.5C3.72386 3.5 3.5 3.72386 3.5 4C3.5 4.27614 3.72386 4.5 4 4.5C4.27614 4.5 4.5 4.27614 4.5 4C4.5 3.72386 4.27614 3.5 4 3.5Z" fill="var(--fill-0, #FFE2E2)" stroke="var(--stroke-0, #C10007)" stroke-linejoin="round"/>
</svg>
