<svg preserveAspectRatio="none" width="100%" height="100%" overflow="visible" style="display: block;" viewBox="0 0 19.5 19.5" fill="none" xmlns="http://www.w3.org/2000/svg">
<g id="Union">
<path fill-rule="evenodd" clip-rule="evenodd" d="M14 9.5C16.4853 9.5 18.5 7.48528 18.5 5C18.5 4.51783 18.4242 4.05338 18.2838 3.61791C18.1792 3.29367 17.7734 3.22683 17.5325 3.46772L14.8402 6.16002C14.7098 6.29041 14.5168 6.34163 14.3466 6.27074C13.6172 5.96695 13.0334 5.38351 12.7292 4.65431C12.6582 4.48403 12.7094 4.29088 12.8398 4.16042L15.5327 1.4676C15.7735 1.22672 15.7067 0.820915 15.3825 0.716358C14.9469 0.575881 14.4823 0.5 14 0.5C11.5147 0.5 9.5 2.51472 9.5 5C9.5 5.09783 9.50312 5.19494 9.50927 5.29122C9.56503 6.16418 9.38174 7.09855 8.70974 7.65855L1.48017 13.6832C0.859099 14.2008 0.5 14.9674 0.5 15.7759C0.5 17.2804 1.71962 18.5 3.2241 18.5C4.03256 18.5 4.79925 18.1409 5.31681 17.5198L11.3414 10.2903C11.9014 9.61827 12.8358 9.43497 13.7088 9.49073C13.8051 9.49688 13.9022 9.5 14 9.5ZM4.5 15.5C4.5 16.0523 4.05228 16.5 3.5 16.5C2.94772 16.5 2.5 16.0523 2.5 15.5C2.5 14.9477 2.94772 14.5 3.5 14.5C4.05228 14.5 4.5 14.9477 4.5 15.5Z" fill="var(--fill-0, #FFE2E2)"/>
<path d="M14 11C14.1731 11 14.3445 10.9927 14.5138 10.9783L18.2678 14.7323C19.2441 15.7086 19.2441 17.2915 18.2678 18.2678C17.2915 19.2441 15.7086 19.2441 14.7323 18.2678L10.3216 13.8571L12.4938 11.2505C12.5455 11.1885 12.6413 11.1131 12.8357 11.0552C13.0378 10.9951 13.305 10.968 13.6132 10.9877C13.7413 10.9959 13.8702 11 14 11Z" fill="var(--fill-0, #FFE2E2)"/>
<path d="M5.50003 4.08582L7.83056 6.41635C7.8027 6.45627 7.77496 6.48497 7.74946 6.50622L6.29994 7.71415L4.08582 5.50003H2.80905C2.61966 5.50003 2.44653 5.39303 2.36184 5.22364L0.661199 1.82237C0.564952 1.62987 0.602678 1.39739 0.754859 1.24521L1.24521 0.754859C1.39739 0.602679 1.62987 0.564951 1.82237 0.661199L5.22364 2.36184C5.39303 2.44653 5.50003 2.61966 5.50003 2.80905V4.08582Z" fill="var(--fill-0, #FFE2E2)"/>
<path fill-rule="evenodd" clip-rule="evenodd" d="M14 9.5C16.4853 9.5 18.5 7.48528 18.5 5C18.5 4.51783 18.4242 4.05338 18.2838 3.61791C18.1792 3.29367 17.7734 3.22683 17.5325 3.46772L14.8402 6.16002C14.7098 6.29041 14.5168 6.34163 14.3466 6.27074C13.6172 5.96695 13.0334 5.38351 12.7292 4.65431C12.6582 4.48403 12.7094 4.29088 12.8398 4.16042L15.5327 1.4676C15.7735 1.22672 15.7067 0.820915 15.3825 0.716358C14.9469 0.575881 14.4823 0.5 14 0.5C11.5147 0.5 9.5 2.51472 9.5 5C9.5 5.09783 9.50312 5.19494 9.50927 5.29122C9.56503 6.16418 9.38174 7.09855 8.70974 7.65855L1.48017 13.6832C0.859099 14.2008 0.5 14.9674 0.5 15.7759C0.5 17.2804 1.71962 18.5 3.2241 18.5C4.03256 18.5 4.79925 18.1409 5.31681 17.5198L11.3414 10.2903C11.9014 9.61827 12.8358 9.43497 13.7088 9.49073C13.8051 9.49688 13.9022 9.5 14 9.5ZM4.5 15.5C4.5 16.0523 4.05228 16.5 3.5 16.5C2.94772 16.5 2.5 16.0523 2.5 15.5C2.5 14.9477 2.94772 14.5 3.5 14.5C4.05228 14.5 4.5 14.9477 4.5 15.5Z" stroke="var(--stroke-0, #C10007)" stroke-linecap="round" stroke-linejoin="round"/>
<path d="M14 11C14.1731 11 14.3445 10.9927 14.5138 10.9783L18.2678 14.7323C19.2441 15.7086 19.2441 17.2915 18.2678 18.2678C17.2915 19.2441 15.7086 19.2441 14.7323 18.2678L10.3216 13.8571L12.4938 11.2505C12.5455 11.1885 12.6413 11.1131 12.8357 11.0552C13.0378 10.9951 13.305 10.968 13.6132 10.9877C13.7413 10.9959 13.8702 11 14 11Z" stroke="var(--stroke-0, #C10007)" stroke-linecap="round" stroke-linejoin="round"/>
<path d="M5.50003 4.08582L7.83056 6.41635C7.8027 6.45627 7.77496 6.48497 7.74946 6.50622L6.29994 7.71415L4.08582 5.50003H2.80905C2.61966 5.50003 2.44653 5.39303 2.36184 5.22364L0.661199 1.82237C0.564952 1.62987 0.602678 1.39739 0.754859 1.24521L1.24521 0.754859C1.39739 0.602679 1.62987 0.564951 1.82237 0.661199L5.22364 2.36184C5.39303 2.44653 5.50003 2.61966 5.50003 2.80905V4.08582Z" stroke="var(--stroke-0, #C10007)" stroke-linecap="round" stroke-linejoin="round"/>
</g>
</svg>
